# xmcd CD database file
#
# Track frame offsets:
#	150
#	14180
#	27252
#	40962
#	55852
#	70100
#	83360
#	98650
#	114002
#	127652
#	141802
#	151917
#	166947
#	177175
#	189375
#	202757
#	215610
#	229930
#
# Disc length: 3262 seconds
#
# Revision: 0
# Processed by: cddbd v1.5.2PL0 Copyright (c) Steve Scherf et al.
# Submitted via: CDex 1.70beta2
#
DISCID=de0cbc12
DTITLE=Lyonel hampton - Avec Teddy Wilson
DYEAR=1940
DGENRE=Jazz
TTITLE0=Buzzin' Around With The Bee
TTITLE1=Whoa Babe
TTITLE2=Stompology
TTITLE3=On The Sunny Side Of The Street
TTITLE4=Drum Stomp
TTITLE5=Piano Stomp
TTITLE6=Ring Dem Bells
TTITLE7=Shoe Shiner's Drag
TTITLE8=Sweethearts On Parade
TTITLE9=Shufflin' At The Hollywood
TTITLE10=When Lights Are Low
TTITLE11=One Sweet Letter From You
TTITLE12=Hot Mallets
TTITLE13=Early Session Hop
TTITLE14=Haven't Named It Yet
TTITLE15=Jack The Bellboy
TTITLE16=Flying Home
TTITLE17=Hamp's Boogie Woogie No. 1
EXTD=YEAR: 1940
EXTT0=
EXTT1=
EXTT2=
EXTT3=
EXTT4=
EXTT5=
EXTT6=
EXTT7=
EXTT8=
EXTT9=
EXTT10=
EXTT11=
EXTT12=
EXTT13=
EXTT14=
EXTT15=
EXTT16=
EXTT17=
PLAYORDER=
